<?xml version="1.0" standalone="no"?>
<!DOCTYPE svg PUBLIC "-//W3C//DTD SVG 20010904//EN"
 "http://www.w3.org/TR/2001/REC-SVG-20010904/DTD/svg10.dtd">
<svg version="1.0" xmlns="http://www.w3.org/2000/svg"
 width="112.000000pt" height="112.000000pt" viewBox="0 0 112.000000 112.000000"
 preserveAspectRatio="xMidYMid meet">
<metadata>
Created by potrace 1.11, written by Peter Selinger 2001-2013
</metadata>
<g transform="translate(0.000000,112.000000) scale(0.100000,-0.100000)"
fill="#000000" stroke="none">
<path d="M54 1033 c-40 -61 -54 -99 -54 -148 1 -50 1 -50 16 -22 22 41 23 33
3 -25 -10 -29 -18 -66 -19 -82 0 -28 1 -29 15 -10 13 16 16 17 25 4 14 -22 12
-46 -5 -60 -12 -10 -16 -8 -24 11 -7 16 -10 -41 -10 -181 -1 -173 2 -211 17
-247 9 -24 22 -43 29 -43 7 0 10 -7 7 -15 -4 -11 -2 -13 9 -9 24 9 56 -35 63
-88 l7 -48 244 1 c204 0 244 3 239 14 -3 8 -1 17 4 20 5 3 11 -4 15 -15 4 -14
15 -20 33 -20 25 1 26 1 7 12 -32 19 -45 41 -39 68 8 36 22 40 59 19 34 -20
44 -16 58 24 6 17 12 19 80 19 43 0 39 10 -13 27 -31 11 -37 10 -52 -9 -17
-21 -38 -27 -38 -9 0 5 -4 8 -9 4 -5 -3 -13 5 -17 17 -4 13 -18 40 -30 60 -13
21 -24 44 -24 51 0 18 -52 9 -128 -22 -58 -23 -76 -26 -67 -11 3 6 16 10 28
11 12 0 47 12 77 27 62 30 63 36 43 140 -6 30 -7 50 -2 45 5 -5 14 -37 20 -72
11 -62 41 -112 47 -79 2 13 7 14 27 4 14 -6 25 -16 25 -22 0 -6 7 -17 15 -24
13 -11 14 -8 9 21 -5 32 -5 33 10 15 34 -42 106 -40 149 2 31 32 31 32 14 61
-17 29 -17 30 4 36 11 4 23 4 27 1 9 -10 41 -137 42 -166 0 -23 4 -21 51 28
l51 52 -7 53 c-4 28 -12 63 -17 77 -6 17 -6 26 2 28 7 3 3 10 -8 18 -11 7 -30
38 -42 69 -12 30 -28 55 -35 55 -7 0 -16 15 -21 33 -7 24 -16 33 -36 35 -24 3
-27 -1 -30 -30 -2 -18 9 -69 24 -113 35 -104 36 -125 3 -125 -14 0 -25 4 -25
8 0 11 -113 3 -125 -9 -6 -7 -5 -13 5 -19 13 -9 13 -10 0 -10 -8 0 -21 -9 -28
-20 -13 -22 -62 -28 -62 -7 0 7 -3 8 -8 2 -10 -14 -42 -18 -42 -5 0 5 4 10 10
10 12 0 2 58 -16 87 -9 14 -35 28 -68 38 -30 9 -57 22 -60 30 -14 38 32 69 60
41 19 -20 44 -21 44 -2 0 20 24 26 51 12 25 -12 28 -27 14 -59 -4 -10 -1 -41
8 -72 10 -37 12 -55 5 -55 -6 0 -8 -3 -4 -7 4 -5 14 1 22 11 8 11 14 16 14 10
0 -5 9 9 19 31 24 53 62 86 108 95 l38 8 -37 1 c-30 1 -40 6 -52 30 -12 22
-12 31 -3 41 9 10 9 12 -3 8 -8 -3 -15 -11 -15 -19 0 -8 -6 -18 -13 -22 -23
-15 -34 4 -29 50 l5 44 -52 -3 c-28 -2 -53 -5 -56 -8 -30 -30 -79 -53 -109
-52 -19 1 -46 -5 -58 -13 -13 -9 -23 -11 -23 -6 0 5 6 11 12 13 10 4 10 10 1
31 -12 25 -11 26 49 46 69 24 99 26 115 10 8 -8 29 -2 74 19 89 41 91 42 180
43 43 1 79 4 79 8 0 12 -61 104 -101 152 -22 26 -39 52 -39 57 0 8 -90 11
-280 12 -244 0 -280 -2 -280 -15 0 -8 -4 -15 -8 -15 -5 0 -17 -7 -28 -15 -18
-15 -16 -16 26 -10 l45 5 -65 -26 c-36 -14 -74 -27 -85 -28 -12 -1 -26 -5 -32
-9 -7 -4 -13 0 -16 10 -3 12 -5 9 -6 -8 -1 -16 -7 -26 -16 -26 -23 0 -18 50 8
79 51 56 52 58 24 58 -16 0 -31 -10 -43 -27z m544 10 c-21 -2 -55 -2 -75 0
-21 2 -4 4 37 4 41 0 58 -2 38 -4z m86 -12 c3 -4 -6 -6 -19 -3 -14 2 -25 6
-25 8 0 8 39 4 44 -5z m136 -41 c0 -13 -80 -13 -100 0 -11 7 2 10 43 10 31 0
57 -4 57 -10z m-594 -53 c4 -4 -5 -7 -19 -7 -17 0 -27 -5 -27 -15 0 -8 -5 -15
-11 -15 -5 0 -7 -4 -4 -10 4 -6 -10 -10 -34 -10 -35 0 -41 3 -41 20 0 12 5 26
11 33 12 13 113 16 125 4z m524 -53 c0 -25 -18 -15 -29 17 -6 18 -11 35 -11
38 1 12 40 -42 40 -55z m-472 9 c-10 -2 -26 -2 -35 0 -10 3 -2 5 17 5 19 0 27
-2 18 -5z m-99 -23 c107 0 108 -1 130 -75 5 -16 12 -39 16 -50 6 -16 5 -17 -4
-5 -6 8 -16 32 -21 52 -13 47 -35 69 -63 64 -12 -3 -55 -8 -94 -11 l-73 -6 1
28 c0 15 3 22 6 16 3 -9 34 -13 102 -13z m141 -25 c0 -5 -5 -3 -10 5 -5 8 -10
20 -10 25 0 6 5 3 10 -5 5 -8 10 -19 10 -25z m131 -32 c-10 -17 -10 -16 -11 3
0 23 13 41 18 25 2 -6 -1 -18 -7 -28z m-241 -523 c0 -5 -5 -10 -11 -10 -5 0
-7 5 -4 10 3 6 8 10 11 10 2 0 4 -4 4 -10z m278 -119 c18 -25 29 -48 25 -54
-5 -8 -9 -4 -11 11 -2 12 -8 20 -13 17 -12 -8 -59 40 -59 60 0 26 22 13 58
-34z"/>
<path d="M115 920 c3 -5 8 -10 11 -10 2 0 4 5 4 10 0 6 -5 10 -11 10 -5 0 -7
-4 -4 -10z"/>
<path d="M160 989 c0 -5 5 -7 10 -4 6 3 10 8 10 11 0 2 -4 4 -10 4 -5 0 -10
-5 -10 -11z"/>
</g>
</svg>
